<mxfile host="ebc28192-fcaa-4b5c-94f0-b894e6163214" modified="2020-08-17T15:32:50.489Z" agent="5.0 (Windows NT 10.0; Win64; x64) AppleWebKit/537.36 (KHTML, like Gecko) Code/1.48.0 Chrome/78.0.3904.130 Electron/7.3.2 Safari/537.36" etag="1VHzCa0bYGGhI1Zsjkbj" version="13.1.3">
    <diagram id="6hGFLwfOUW9BJ-s0fimq" name="Page-1">
        <mxGraphModel dx="811" dy="1730" grid="1" gridSize="10" guides="1" tooltips="1" connect="1" arrows="1" fold="1" page="1" pageScale="1" pageWidth="827" pageHeight="1169" math="0" shadow="0">
            <root>
                <mxCell id="0"/>
                <mxCell id="1" parent="0"/>
                <mxCell id="2" value="&lt;h1&gt;package.json 설정하기&lt;/h1&gt;&lt;p&gt;&lt;a href=&quot;https://programmingsummaries.tistory.com/385&quot;&gt;https://programmingsummaries.tistory.com/385&lt;/a&gt;&lt;br&gt;&lt;/p&gt;" style="text;html=1;strokeColor=none;fillColor=none;spacing=5;spacingTop=-20;whiteSpace=wrap;overflow=hidden;rounded=0;" vertex="1" parent="1">
                    <mxGeometry x="40" y="160" width="270" height="70" as="geometry"/>
                </mxCell>
                <mxCell id="3" value="&lt;h1&gt;Documentation&lt;/h1&gt;&lt;p&gt;&lt;a href=&quot;https://www.gatsbyjs.com/docs/&quot;&gt;https://www.gatsbyjs.com/docs/&lt;/a&gt;&lt;br&gt;&lt;/p&gt;" style="text;html=1;strokeColor=none;fillColor=none;spacing=5;spacingTop=-20;whiteSpace=wrap;overflow=hidden;rounded=0;" vertex="1" parent="1">
                    <mxGeometry x="40" y="40" width="190" height="70" as="geometry"/>
                </mxCell>
                <mxCell id="4" value="&lt;h1&gt;GraphQL&lt;/h1&gt;velopert :&amp;nbsp;&lt;a href=&quot;https://velopert.com/2318&quot;&gt;https://velopert.com/2318&lt;/a&gt;&lt;br&gt;kakao talk :&amp;nbsp;&lt;a href=&quot;https://tech.kakao.com/2019/08/01/graphql-basic/&quot;&gt;https://tech.kakao.com/2019/08/01/graphql-basic/&lt;/a&gt;" style="text;html=1;strokeColor=none;fillColor=none;spacing=5;spacingTop=-20;whiteSpace=wrap;overflow=hidden;rounded=0;" vertex="1" parent="1">
                    <mxGeometry x="40" y="-80" width="400" height="80" as="geometry"/>
                </mxCell>
                <mxCell id="5" value="&lt;h1&gt;yarn 기본&lt;/h1&gt;&lt;p&gt;&lt;a href=&quot;https://gist.github.com/jjangga0214/13df6efda0b9060bcae29a517ea0ad39&quot;&gt;https://gist.github.com/jjangga0214/13df6efda0b9060bcae29a517ea0ad39&lt;/a&gt;&lt;br&gt;&lt;/p&gt;" style="text;html=1;strokeColor=none;fillColor=none;spacing=5;spacingTop=-20;whiteSpace=wrap;overflow=hidden;rounded=0;" vertex="1" parent="1">
                    <mxGeometry x="400" y="110" width="410" height="70" as="geometry"/>
                </mxCell>
                <mxCell id="6" value="&lt;h1&gt;javascript array and object destructing with ES6&lt;/h1&gt;&lt;a href=&quot;https://weichie.com/blog/javascript-array-and-object-destructuring-with-es6/&quot;&gt;https://weichie.com/blog/javascript-array-and-object-destructuring-with-es6/&lt;/a&gt;" style="text;html=1;strokeColor=none;fillColor=none;spacing=5;spacingTop=-20;whiteSpace=wrap;overflow=hidden;rounded=0;" vertex="1" parent="1">
                    <mxGeometry x="40" y="250" width="570" height="70" as="geometry"/>
                </mxCell>
                <mxCell id="7" value="&lt;h1&gt;lekoarts 기본 블로그&lt;br&gt;&lt;/h1&gt;공홈 설명 :&amp;nbsp;&lt;a href=&quot;https://www.gatsbyjs.com/plugins/@lekoarts/gatsby-theme-minimal-blog/&quot;&gt;https://www.gatsbyjs.com/plugins/@lekoarts/gatsby-theme-minimal-blog/&lt;/a&gt;&lt;br&gt;github :&amp;nbsp;&lt;a href=&quot;https://github.com/LekoArts/gatsby-starter-minimal-blog/blob/master/package.json&quot;&gt;https://github.com/LekoArts/gatsby-starter-minimal-blog/blob/master/package.json&lt;/a&gt;" style="text;html=1;strokeColor=none;fillColor=none;spacing=5;spacingTop=-20;whiteSpace=wrap;overflow=hidden;rounded=0;" vertex="1" parent="1">
                    <mxGeometry x="40" y="360" width="500" height="80" as="geometry"/>
                </mxCell>
            </root>
        </mxGraphModel>
    </diagram>
</mxfile>